<svg xmlns="http://www.w3.org/2000/svg" viewBox="0 0 400 240">
  <defs>
    <linearGradient id="bg" x1="0%" y1="0%" x2="100%" y2="100%">
      <stop offset="0%" style="stop-color:#f0fdfa"/>
      <stop offset="100%" style="stop-color:#ccfbf1"/>
    </linearGradient>
  </defs>
  <rect width="400" height="240" fill="url(#bg)"/>
  <circle cx="200" cy="100" r="55" fill="#0d9488" opacity="0.12"/>
  <circle cx="200" cy="100" r="40" fill="#0d9488" opacity="0.18"/>
  <!-- Open Quran book -->
  <g transform="translate(200,95)" fill="none" stroke="#0d9488" stroke-width="2.5" stroke-linecap="round" stroke-linejoin="round">
    <path d="M-24 -18 C-24 -18 -2 -22 0 -16 C2 -22 24 -18 24 -18 L24 16 C24 16 2 12 0 18 C-2 12 -24 16 -24 16Z"/>
    <line x1="0" y1="-16" x2="0" y2="18"/>
    <line x1="-18" y1="-10" x2="-5" y2="-12"/>
    <line x1="-18" y1="-3" x2="-5" y2="-5"/>
    <line x1="-18" y1="4" x2="-5" y2="2"/>
    <line x1="5" y1="-12" x2="18" y2="-10"/>
    <line x1="5" y1="-5" x2="18" y2="-3"/>
    <line x1="5" y1="2" x2="18" y2="4"/>
  </g>
  <!-- Sound waves for recitation -->
  <g transform="translate(200,95)" fill="none" stroke="#0d9488" stroke-width="1.5" opacity="0.5">
    <path d="M30 -8 C34 -4 34 4 30 8"/>
    <path d="M35 -14 C42 -7 42 7 35 14"/>
  </g>
  <text x="200" y="165" text-anchor="middle" font-family="system-ui,sans-serif" font-size="15" font-weight="700" fill="#134e4a">Quran Recitation</text>
  <text x="200" y="185" text-anchor="middle" font-family="system-ui,sans-serif" font-size="12" fill="#0d9488">with Tajweed</text>
</svg>